<svg xmlns="http://www.w3.org/2000/svg" width="408" height="114.5" viewBox="0 0 408 114.5"><path fill="#fff" d="M53.77 33.807c-.71 1.563-2.58.974-3.13-.52-.457-1.233-.35-2.733-.158-3.992.363-2.347 1.724-4.46 3.367-6.112 1.666-1.677 3.906-2.637 6.245-2.81 5.236-.39 8.758 4.725 10.566 8.914C75.8 41.197 71.67 54.58 66.57 65.73c-4.586 10.02-11.196 19.19-15.065 29.527-2.073 5.54-1.54 11.467 4.61 13.815-.167-.062-.507-1.22-.942-1.387-4.143-1.585-4.392-4.79-3.38-8.734 1.178-4.58 3.644-8.868 5.88-12.994 5.895-10.868 12.407-21.634 15.235-33.806 2.438-10.486.958-22.768-7.16-30.525-7.78-7.433-20.784 3.396-15.197 12.3.79 1.26 3.2 3.585 4.24 1.288.166-.36-1.077-1.28-1.018-1.406zM72.352 56.556c2.686-6.104 4.805-12.532 6.333-19.017 1.59-6.753 3.537-16.81-2.586-21.92-7.654-6.39-18.77-3.47-25 3.37-2.96 3.245-6.913 9.902-4.398 14.317 1.667 2.93 5.55 2.658 8.225 1.742.166-.058-.912-1.207-1.29-1.077-1.815.62-5.063 1.682-6.042-.84-.915-2.358.43-5.407 1.345-7.546 1.787-4.18 5-7.608 8.867-9.926 3.758-2.253 8.348-2.997 12.63-2.204 4.896.907 7.41 4.11 8.12 8.726 1.08 7.007-1.12 14.63-3.16 21.27-1.257 4.09-2.716 8.156-4.44 12.072-.156.344 1.325 1.187 1.395 1.032zM32.456 42.81c1.23-6.324-.383-13.836-8.317-12.283-7.976 1.56-12.442 9.893-13.482 17.267-.85 6.022.298 12.555 3.738 17.605 3.277 4.81 8.795 7.407 14.297 8.703 6.65 1.564 13.913.024 20.34 2.56 4.564 1.798 4.16 7.43.24 9.863-.7.436.99.213 1.283.03 2.75-1.707 4.394-4.632 3.054-7.783-1.19-2.794-4.91-3.414-7.527-3.828-6.232-.985-12.492-.362-18.615-2.177-5.988-1.774-10.892-5.81-13.457-11.52-3.942-8.78-2.146-21.044 5.162-27.544 2.63-2.34 6.507-3.86 9.61-1.537 3.2 2.4 2.676 7.584 2.02 10.953-.072.364 1.577.09 1.654-.31zM32.47 43.08c1.95-6.258 1.405-13.464-6.137-14.88-6.972-1.307-14.442 3.103-18.76 8.24-6.478 7.71-5.766 17.947-1.39 26.48 2.972 5.8 7.556 8.666 13.8 10.17 5.428 1.31 11.112.78 16.506 2.02.688.16 1.963-.647.856-.9-9.632-2.218-22.13.424-28.26-9.42-4.833-7.77-6.518-17.324-1.7-25.48 3.38-5.72 10.11-10.236 16.863-10.264 7.882-.034 8.35 7.98 6.538 13.8-.233.747 1.487.86 1.682.235zM51.12 58.43c1.65.02 3.31.005 4.91-.432 1.17-.32 3.675-2.33 4.83-1.732.217.112.828-.193.53-.348-.976-.504-2.447.358-3.322.743-2.33 1.022-4.09 1.38-6.695 1.348-.28-.003-.706.415-.252.42zM38.716 27.314c-2.1-.04-1.598 2.425-1.23 3.73 1.588 5.64 3.78 11.173 5.62 16.74.087.263.756.074.672-.182-1.195-3.618-2.4-7.23-3.617-10.843-.29-.868-3.504-9.06-1.693-9.025.277.006.704-.412.25-.42zM45.825 34.357c3.532 7.316 6.066 17.52 13.8 21.634.264.142.85-.215.514-.392-7.664-4.08-10.132-14.152-13.643-21.422-.145-.3-.81-.104-.672.18zM38.623 27.71c3.265.722 5.777 3.842 7.203 6.647.12.237.772.02.672-.18-1.487-2.922-4.073-6.09-7.465-6.838-.22-.05-.795.286-.41.37zM64.562 61.932c-.507.1-1.444.33-1.693.854-.37.777.426 1.483 1.216 1.424 1.82-.14 2.644-2 2.527-3.687-.178-2.57-5.955-.066-6.985.394-1.522.678-5.278 4.05-1.768 4.667.24.043.795-.33.402-.4-2.654-.466-.12-2.904.872-3.536 1.59-1.013 4.03-1.78 5.916-1.786 1.357-.005.846 1.766.603 2.48-.11.324-.258.637-.41.944-1.467-.396-1.78-.69-.94-.884.117-.037.24-.063.36-.087.42-.08.307-.463-.1-.383zM33.54 32.61c.962-1.416 1.99-2.853 3.226-4.047.143-.138-.493-.06-.608.05-1.254 1.213-2.305 2.678-3.28 4.115-.048.07.55.044.662-.12zM41.173 53.517c-.843-3.43-2.714-7.06-5.745-9.002-.186-.117-.805.15-.536.325 2.974 1.905 4.782 5.497 5.608 8.858.06.233.73.056.673-.18zM43.157 63.52c-2.47-2.29-1.598-6.697-1.747-9.707-.195-3.897-.655-8.226-2.247-11.83-.12-.27-.783-.07-.673.18 1.827 4.136 2.19 9.138 2.317 13.6.074 2.57-.39 6.072 1.73 8.04.202.184.837-.083.62-.282zM50.692 65.713c-2.522-.41-5.248-.947-7.528-2.17-.178-.094-.734.182-.63.236 2.31 1.238 5.054 1.79 7.61 2.206.164.025.746-.242.548-.273zM34.588 47.843c.61 4.115 1.29 8.435 1.24 12.6-.005.308.672.178.676-.072.05-4.205-.63-8.555-1.244-12.708-.038-.257-.712-.096-.672.18zM38.313 48.67c-.098 4.6-.455 9.174-.637 13.768-.01.255.66.11.67-.092.182-4.623.54-9.228.64-13.857.004-.18-.666-.067-.673.18zM35.06 45.416c.458 1.726.79 3.493 1.007 5.265.013.11.69-.02.672-.18-.216-1.772-.55-3.538-1.007-5.264-.035-.132-.708.048-.672.18z"/><g enable-background="new" fill="#fff"><path d="M74.83 46.16c.832-1.007 1.718-2.026 2.66-3.054.94-1.03 1.873-2.025 2.79-2.988.92-.963 1.774-1.85 2.563-2.66.79-.81 1.444-1.5 1.97-2.068 3.062-3.37 6.172-6.72 9.324-10.048 3.15-3.326 6.39-6.916 9.72-10.77l1.51 1.117c-3.767 4.377-7.608 8.657-11.525 12.838-3.918 4.18-7.825 8.416-11.72 12.706.568-.395 1.137-.776 1.707-1.15.567-.37 1.158-.73 1.77-1.082 1.138-.7 2.465-1.423 3.974-2.167 1.51-.744 3.086-1.38 4.728-1.905s3.283-.886 4.925-1.082c1.642-.198 3.173-.11 4.597.262 1.422.372 2.68 1.095 3.776 2.167 1.094 1.074 1.904 2.617 2.43 4.63.655 2.453 1.04 5.144 1.148 8.077.11 2.933.1 5.813-.033 8.635-.13 2.822-.318 5.45-.558 7.88-.24 2.43-.362 4.366-.362 5.81-.045 1.49-.078 3.154-.1 4.99-.022 1.84-.01 3.722.034 5.65.04 1.924.14 3.83.293 5.713.153 1.88.426 3.567.82 5.056.264 1.092.613 2.2 1.052 3.313.438 1.118.995 2.146 1.674 3.088.677.94 1.498 1.717 2.46 2.33s2.146.964 3.546 1.05c1.183.046 2.354-.096 3.513-.424 1.16-.33 2.308-.668 3.447-1.02l.46 1.904-3.81 1.185c-1.27.393-2.56.523-3.874.393-2.277-.262-4.147-1.063-5.615-2.398-1.467-1.335-2.638-2.986-3.513-4.956-.875-1.97-1.5-4.158-1.872-6.566s-.604-4.806-.69-7.19c-.088-2.387-.088-4.663 0-6.83.086-2.168.153-3.996.197-5.483.087-2.407.23-4.838.426-7.29.196-2.452.35-4.914.46-7.388.108-2.473.108-4.958 0-7.454-.11-2.495-.45-4.99-1.018-7.486-.438-1.75-1.14-3.063-2.102-3.94-.963-.874-2.09-1.433-3.382-1.674-1.293-.24-2.67-.23-4.137.033-1.466.262-2.922.667-4.366 1.215-1.444.55-2.833 1.15-4.168 1.808-1.338.657-2.486 1.247-3.45 1.772-.874.482-1.73.93-2.56 1.346-.83.417-1.717.92-2.66 1.51-.94.592-1.968 1.313-3.084 2.167-1.116.854-2.354 1.937-3.71 3.25-.568 2.407.553-4.443.333-2.824zM126.248 38.738c-.395.22-.8.417-1.214.59-.417.176-.8.417-1.15.724-1.05.875-2.135 2.198-3.25 3.974-1.117 1.772-2.06 3.677-2.823 5.712-.766 2.036-1.238 4.038-1.41 6.01-.178 1.97.173 3.612 1.05 4.925.218.35.492.614.82.79.33.174.646.37.952.59.7-.087 1.434-.426 2.2-1.02.767-.59 1.522-1.333 2.266-2.232.743-.895 1.466-1.915 2.167-3.053.7-1.136 1.357-2.32 1.97-3.546-.087-.436-.154-.874-.196-1.312-.045-.438-.09-.875-.133-1.313-.088-.702-.165-1.544-.23-2.53-.065-.983-.054-1.97.032-2.953.087-.985.294-1.905.623-2.758.33-.855.82-1.5 1.478-1.938.307-.175.635-.217.986-.132 1.006.482 1.652 1.16 1.937 2.036.285.875.37 1.807.264 2.79-.11.986-.36 1.994-.757 3.022-.393 1.03-.744 1.96-1.05 2.792l-1.05 2.43c.612 3.896 1.684 7.662 3.218 11.294 1.532 3.633 3.523 7.004 5.976 10.113l-1.642 1.183c-2.365-2.98-4.248-6.107-5.647-9.39-1.402-3.284-2.475-6.698-3.218-10.245-.876 1.665-1.884 3.262-3.022 4.794-1.137 1.533-2.43 2.715-3.875 3.546-.92.57-1.75.8-2.496.69-.745-.11-1.39-.428-1.937-.953-.55-.525-1.007-1.19-1.378-2.002-.373-.81-.648-1.662-.822-2.56-.175-.897-.273-1.773-.294-2.628-.023-.853.032-1.563.163-2.134.305-1.312.525-2.253.656-2.822.132-.568.263-1.062.395-1.48.13-.414.316-.895.558-1.443.24-.547.624-1.454 1.15-2.725.788-1.88 1.826-3.522 3.118-4.925 1.292-1.4 2.792-2.604 4.5-3.612l1.114 1.705zm3.874 2.56c-.22.044-.383.35-.492.92-.11.568-.187 1.238-.23 2.002-.045.766-.066 1.543-.066 2.332v1.904c.48-1.444.82-2.79 1.017-4.038.2-1.247.165-2.265-.098-3.053.002-.044-.042-.067-.13-.067zm-.79 7.093v.199-.2zm0 .658c.044.087.066.077.066-.033 0-.108-.022-.23-.065-.36.043.087.054.164.033.23-.022.064-.033.12-.033.163zM131.303 35.718l6.24-2.036c.043 0 .086-.022.13-.065.308-1.795.417-3.613.33-5.452-.09-1.837-.44-3.326-1.05-4.464l1.838-.72c.483 1.488.822 3.13 1.02 4.925.197 1.797.185 3.504-.033 5.123l8.275-2.56.59 1.903c-1.532.44-3.063.91-4.595 1.412-1.533.503-3.064.976-4.596 1.413-.262 2.102-.548 4.017-.853 5.746-.306 1.73-.592 3.383-.853 4.96-.262 1.575-.47 3.14-.625 4.694-.155 1.554-.232 3.184-.232 4.892.043 2.1.33 3.786.853 5.056.526 1.27 1.227 2.102 2.102 2.497.875.392 1.873.337 2.988-.166 1.115-.504 2.287-1.455 3.513-2.857.263.176.525.35.79.525.26.176.523.372.787.59-.438.484-.94.986-1.51 1.512-.57.525-1.182.996-1.838 1.41-.657.416-1.346.745-2.068.986-.723.24-1.434.317-2.135.23-1.665-.22-2.923-.886-3.776-2.002-.853-1.116-1.424-2.505-1.708-4.17-.286-1.663-.362-3.523-.23-5.582.13-2.057.36-4.137.688-6.24.33-2.1.69-4.145 1.084-6.14.395-1.99.7-3.753.92-5.286-.438.175-1.205.46-2.3.853-1.092.395-2.23.79-3.413 1.184l-.332-2.17zM153.63 35.52c.35 1.49.438 3.25.263 5.288-.177 2.034-.45 4.17-.82 6.402-.373 2.232-.734 4.455-1.084 6.666-.352 2.21-.517 4.258-.495 6.14.022 1.883.306 3.482.853 4.794.55 1.313 1.565 2.19 3.053 2.626l-.392 1.904c-1.882-.22-3.217-.975-4.006-2.265-.79-1.292-1.238-2.912-1.346-4.86-.11-1.948 0-4.126.33-6.534.327-2.406.688-4.814 1.082-7.223.396-2.406.69-4.706.887-6.894.197-2.188.1-4.072-.296-5.648l1.97-.395zm-2.69-7.29c.742-.13 1.332-.394 1.77-.788l1.184 1.576c-.396.175-.767.384-1.116.624-.35.24-.767.405-1.25.493l-.59-1.904zM155.797 42.61v.068c.086.306.286.755.59 1.346.31.59.647 1.214 1.02 1.872.37.657.765 1.292 1.183 1.904.416.614.797 1.095 1.148 1.446.13-1.356.338-2.715.623-4.073.287-1.355.66-2.668 1.118-3.94.46-1.27 1.006-2.45 1.642-3.546.634-1.094 1.41-2.057 2.332-2.888.83-.746 1.62-1.04 2.363-.888.745.153 1.39.623 1.938 1.412.547.788.995 1.795 1.346 3.02.35 1.227.557 2.54.624 3.94.064 1.4-.024 2.802-.263 4.202-.24 1.4-.678 2.65-1.313 3.743-.635 1.093-1.466 1.947-2.495 2.56-1.03.613-2.31.853-3.842.722-.832-.043-1.75-.33-2.76-.854-.22 1.095-.25 2.397-.097 3.908.152 1.51.494 2.9 1.018 4.17.527 1.27 1.282 2.222 2.268 2.856.983.635 2.24.603 3.774-.098 1.137-.482 2.2-1.105 3.186-1.872.984-.766 1.98-1.5 2.988-2.2l.92 1.772c-1.095.7-2.137 1.49-3.12 2.364-.985.875-2.112 1.488-3.382 1.838-2.322.612-4.127.558-5.417-.165-1.293-.72-2.234-1.815-2.825-3.283-.59-1.465-.918-3.14-.984-5.024-.067-1.88-.032-3.654.1-5.32-.263-.217-.703-.665-1.314-1.345-.614-.677-1.216-1.41-1.81-2.198-.59-.79-1.09-1.545-1.507-2.266-.417-.722-.58-1.237-.495-1.543l1.445-1.64zm10.965-6.3c-.656.743-1.27 1.652-1.838 2.723-.57 1.075-1.084 2.244-1.544 3.513-.46 1.27-.854 2.606-1.183 4.006-.328 1.402-.58 2.78-.754 4.138.874.22 1.575.384 2.102.492.524.11.928.186 1.214.23.284.044.512.044.69 0 .173-.042.37-.108.59-.196 1.006-.395 1.784-1.104 2.332-2.135.547-1.028.92-2.176 1.116-3.447.196-1.27.25-2.57.166-3.907-.09-1.336-.276-2.484-.56-3.448-.284-.962-.635-1.662-1.05-2.102-.416-.436-.844-.393-1.282.133zM178.648 4c1.926.395 3.228.984 3.907 1.773.677.787 1.03 1.75 1.05 2.89.022 1.137-.153 2.43-.525 3.874-.37 1.446-.668 2.98-.885 4.598l-1.905-.132c.132-.79.35-1.763.657-2.923.307-1.16.525-2.29.658-3.382s.077-2.08-.166-2.956c-.24-.875-.822-1.444-1.74-1.708-.263-.086-.516-.132-.755-.132-.24 0-.493-.023-.756-.066L178.647 4zM206.162 35.125c-1.094.263-2.375.668-3.84 1.215-1.47.55-2.89 1.183-4.27 1.906-1.38.72-2.595 1.5-3.646 2.332-1.05.832-1.686 1.663-1.903 2.494.83.57 1.86 1.02 3.085 1.346 1.227.33 2.53.614 3.907.854 1.38.24 2.77.47 4.17.69 1.4.218 2.702.524 3.908.918 1.202.395 2.253.898 3.15 1.51.896.614 1.52 1.446 1.873 2.497v.065l6.172-1.247.264 1.97c-1.008.22-2.036.428-3.087.624-1.05.196-2.08.404-3.085.624-.09 1.533-.758 2.978-2.003 4.333-1.25 1.357-2.717 2.573-4.402 3.645-1.686 1.073-3.403 2.002-5.153 2.79-1.753.79-3.152 1.38-4.203 1.773-.57.22-1.25.46-2.036.723-.79.262-1.608.48-2.462.657-.855.175-1.708.262-2.56.262-.854 0-1.608-.13-2.267-.394-1.706-.79-2.504-1.686-2.396-2.692.108-1.006.787-2.046 2.033-3.12 1.25-1.07 2.9-2.144 4.96-3.216 2.056-1.073 4.2-2.036 6.435-2.89 2.233-.853 4.39-1.585 6.467-2.2 2.08-.61 3.775-1.005 5.09-1.18-.7-.965-1.63-1.698-2.79-2.202-1.16-.5-2.42-.896-3.776-1.182-1.358-.284-2.737-.502-4.137-.657-1.402-.153-2.716-.34-3.94-.56-1.227-.216-2.29-.513-3.187-.885-.897-.37-1.5-.952-1.806-1.74-.656-1.313-.536-2.538.362-3.676.896-1.14 2.156-2.18 3.775-3.12 1.618-.94 3.413-1.75 5.384-2.43 1.972-.68 3.678-1.215 5.124-1.61l.788 1.773zm-9.718 28.435c.612-.22 1.38-.525 2.298-.92s1.894-.865 2.922-1.412c1.03-.547 2.07-1.138 3.122-1.773 1.05-.633 2.002-1.313 2.855-2.034.855-.722 1.564-1.454 2.136-2.2.567-.744.875-1.488.92-2.232-1.05.35-2.32.732-3.81 1.15-1.49.416-3.053.874-4.695 1.377-1.64.504-3.293 1.074-4.957 1.708-1.663.635-3.216 1.345-4.663 2.135-1.97 1.05-3.306 2.025-4.005 2.923s-.853 1.577-.46 2.037c.397.458 1.304.657 2.727.59 1.42-.065 3.29-.515 5.612-1.347zM367.964 72.49c-3.413-.218-7.048-.426-10.9-.622-3.853-.197-7.76-.35-11.722-.46-3.963-.11-7.87-.185-11.724-.23-3.852-.043-7.485-.055-10.9-.032-3.413.023-6.512.1-9.29.23-2.78.132-5.045.285-6.797.46.438 3.24.22 6.215-.656 8.93-.876 2.714-2.2 5.166-3.974 7.357-1.772 2.188-3.94 4.103-6.503 5.745-2.558 1.642-5.316 3.03-8.272 4.168-2.957 1.14-6.032 1.992-9.226 2.562-3.197.568-6.327.865-9.39.888-3.066.02-6-.232-8.802-.757-2.802-.527-5.276-1.326-7.42-2.4-2.145-1.07-3.896-2.427-5.252-4.068-1.357-1.644-2.125-3.58-2.3-5.814-.217-2.276.352-4.28 1.71-6.007 1.357-1.728 3.228-3.22 5.614-4.465 2.386-1.245 5.165-2.296 8.34-3.152 3.174-.853 6.502-1.554 9.982-2.1 3.48-.55 6.97-.975 10.473-1.282 3.502-.305 6.785-.547 9.85-.72 3.065-.176 5.78-.307 8.144-.395 2.364-.088 4.136-.197 5.317-.328-1.62-2.717-3.635-4.992-6.04-6.83-2.408-1.84-5.056-3.37-7.946-4.598-2.888-1.226-5.94-2.2-9.157-2.924-3.22-.72-6.47-1.312-9.753-1.772-3.283-.46-6.524-.865-9.72-1.215-3.195-.35-6.196-.766-8.996-1.248-.83-.132-1.99-.295-3.48-.493-1.488-.198-3.054-.472-4.695-.822-1.643-.35-3.262-.81-4.858-1.378-1.6-.568-2.957-1.314-4.072-2.233-1.117-.92-1.873-2.025-2.266-3.317-.396-1.29-.22-2.856.525-4.695 1.53-3.766 3.52-7.168 5.975-10.21 2.453-3.043 5.263-5.68 8.438-7.914 3.175-2.232 6.667-4.037 10.476-5.416 3.806-1.38 7.813-2.265 12.016-2.66 1.707-.175 3.665-.208 5.878-.1 2.21.11 4.465.36 6.764.757 2.297.395 4.552.953 6.762 1.675 2.21.72 4.203 1.6 5.98 2.627 1.77 1.03 3.237 2.21 4.397 3.545 1.16 1.337 1.826 2.847 2.002 4.532.175 1.684-.24 3.544-1.247 5.58-1.01 2.036-2.78 4.258-5.32 6.666l-1.642-1.116c2.63-2.233 4.367-4.31 5.223-6.24.854-1.924 1.07-3.686.656-5.285-.416-1.598-1.336-3.042-2.758-4.334-1.424-1.29-3.098-2.385-5.024-3.283-1.928-.897-4.005-1.62-6.24-2.167-2.232-.548-4.334-.887-6.303-1.02-1.49-.13-2.967-.173-4.434-.13-1.466.043-2.92.11-4.366.196-2.407.175-4.87.604-7.387 1.28-2.517.68-4.99 1.577-7.42 2.693-2.43 1.116-4.772 2.44-7.026 3.973-2.256 1.533-4.312 3.25-6.172 5.155-1.86 1.905-3.47 3.983-4.827 6.24-1.355 2.254-2.363 4.65-3.02 7.19-.307 1.095-.13 2.068.524 2.923.657.854 1.565 1.588 2.727 2.2 1.16.614 2.483 1.14 3.975 1.576 1.485.438 2.932.8 4.334 1.083 1.398.285 2.67.502 3.806.656 1.138.155 1.948.274 2.432.36 2.89.483 5.997.91 9.324 1.28 3.325.375 6.686.813 10.08 1.315 3.393.503 6.764 1.15 10.11 1.938 3.35.788 6.513 1.862 9.49 3.218 2.977 1.357 5.69 3.064 8.144 5.12 2.453 2.06 4.487 4.6 6.106 7.62 10.418-.482 20.816-.658 31.192-.525 10.377.132 20.576.57 30.604 1.314l-.074 1.707zM249.436 93.637c1.707 1.795 3.862 3.184 6.468 4.17 2.604.984 5.45 1.617 8.537 1.904 3.086.284 6.304.22 9.65-.198 3.35-.415 6.613-1.146 9.786-2.197s6.15-2.39 8.93-4.006c2.78-1.62 5.157-3.493 7.125-5.617 1.973-2.123 3.428-4.498 4.37-7.125.94-2.625 1.15-5.45.623-8.47-9.326-.043-17.35.273-24.068.952-6.72.68-12.344 1.587-16.876 2.724-4.532 1.14-8.077 2.464-10.64 3.974-2.56 1.51-4.346 3.065-5.352 4.664-1.006 1.598-1.336 3.195-.984 4.793.35 1.596 1.16 3.073 2.432 4.43zM311.425 9.844c.524 2.67.83 5.463.918 8.373.088 2.913.055 5.845-.096 8.8-.156 2.954-.36 5.91-.626 8.864-.26 2.957-.47 5.825-.622 8.604-.153 2.78-.197 5.44-.13 7.98.063 2.538.36 4.88.884 7.025 1.095-2.497 2.29-5.045 3.58-7.65 1.29-2.605 2.582-4.99 3.874-7.158 1.29-2.167 2.53-3.982 3.71-5.45 1.185-1.467 2.234-2.343 3.153-2.628.92-.285 1.65.165 2.2 1.346.546 1.182.818 3.328.818 6.436 0 1.357-.076 3.086-.23 5.188-.155 2.1-.24 4.312-.264 6.632-.023 2.32.09 4.575.33 6.764.238 2.19.755 4.027 1.542 5.515.788 1.488 1.917 2.472 3.383 2.955 1.464.482 3.425.153 5.878-.983l.263 1.97c-2.407 1.05-4.41 1.466-6.01 1.25-1.597-.22-2.878-.89-3.84-2.005-.964-1.116-1.664-2.583-2.1-4.4-.44-1.818-.725-3.81-.856-5.976-.13-2.168-.176-4.39-.13-6.666.043-2.276.086-4.443.13-6.5.044-2.058.034-3.897-.03-5.518-.066-1.617-.295-2.823-.69-3.61-1.534 1.356-3.032 3.052-4.5 5.09-1.467 2.035-2.802 4.168-4.006 6.402-1.204 2.233-2.232 4.456-3.086 6.666-.853 2.21-1.456 4.193-1.805 5.942-.09.482-.342.788-.758.92s-.8-.023-1.15-.46c-.917-2.582-1.52-5.307-1.805-8.175-.284-2.867-.383-5.8-.296-8.8.087-2.998.273-6.05.557-9.16.286-3.107.515-6.183.69-9.226.177-3.04.24-6.03.197-8.962-.044-2.932-.35-5.734-.92-8.406l1.84-.988zM342.88 38.804c3.064 1.75 5.297 3.732 6.698 5.943 1.398 2.21 2.176 4.444 2.33 6.697.152 2.256-.22 4.41-1.116 6.468-.897 2.058-2.113 3.8-3.644 5.22-1.533 1.423-3.285 2.397-5.254 2.923s-3.963.372-5.976-.46c-1.533-.612-2.638-1.65-3.317-3.118-.677-1.465-1.026-3.162-1.05-5.09-.02-1.925.24-3.982.788-6.172.547-2.19 1.28-4.323 2.2-6.404.92-2.078 1.98-3.98 3.185-5.712 1.204-1.728 2.463-3.12 3.777-4.17l1.378 1.577c-.922.44-1.895 1.356-2.924 2.758-1.028 1.4-1.98 3.022-2.855 4.86-.88 1.838-1.633 3.808-2.266 5.91-.636 2.1-1.03 4.082-1.185 5.942-.154 1.86 0 3.492.458 4.892.46 1.4 1.326 2.343 2.597 2.823 2.013.7 3.862.776 5.548.23 1.684-.547 3.098-1.487 4.235-2.822 1.14-1.334 1.98-2.945 2.53-4.827.545-1.88.666-3.808.36-5.777-.307-1.97-1.083-3.852-2.332-5.647-1.25-1.795-3.053-3.305-5.417-4.532l1.25-1.51zM351.483 42.61v.068c.085.306.284.755.59 1.346.308.59.646 1.214 1.02 1.872.37.657.765 1.292 1.183 1.904.415.614.8 1.095 1.146 1.446.134-1.356.34-2.715.626-4.073.285-1.355.656-2.668 1.115-3.94.46-1.27 1.007-2.45 1.643-3.546.636-1.094 1.41-2.057 2.33-2.888.832-.746 1.62-1.04 2.367-.888.742.153 1.387.623 1.935 1.412.548.788.996 1.795 1.348 3.02.348 1.227.555 2.54.623 3.94.063 1.4-.024 2.802-.264 4.202-.242 1.4-.68 2.65-1.314 3.743-.633 1.093-1.467 1.947-2.496 2.56-1.028.613-2.308.853-3.84.722-.832-.043-1.753-.33-2.76-.854-.22 1.095-.25 2.397-.098 3.908.153 1.51.493 2.9 1.02 4.17.524 1.27 1.278 2.222 2.265 2.856.982.635 2.24.603 3.774-.098 1.137-.482 2.2-1.105 3.186-1.872.984-.766 1.98-1.5 2.987-2.2l.92 1.772c-1.094.7-2.134 1.49-3.12 2.364-.982.875-2.11 1.488-3.382 1.838-2.322.612-4.127.558-5.416-.165-1.293-.72-2.233-1.815-2.823-3.283-.592-1.465-.92-3.14-.986-5.024-.065-1.88-.032-3.654.098-5.32-.262-.217-.7-.665-1.312-1.345-.613-.677-1.214-1.41-1.806-2.198-.594-.79-1.094-1.545-1.51-2.266-.415-.722-.58-1.237-.495-1.543l1.443-1.64zm10.966-6.3c-.66.743-1.272 1.652-1.84 2.723-.57 1.075-1.083 2.244-1.543 3.513-.46 1.27-.857 2.606-1.184 4.006-.328 1.402-.58 2.78-.756 4.138.874.22 1.577.384 2.1.492.528.11.93.186 1.215.23.285.044.514.044.69 0 .176-.042.373-.108.59-.196 1.007-.395 1.786-1.104 2.332-2.135.548-1.028.92-2.176 1.117-3.447.2-1.27.254-2.57.166-3.907-.087-1.336-.275-2.484-.56-3.448-.283-.962-.632-1.662-1.05-2.102-.414-.436-.842-.393-1.277.133zM392.324 35.125c-1.095.263-2.373.668-3.842 1.215-1.465.55-2.887 1.183-4.268 1.906-1.38.72-2.593 1.5-3.644 2.332-1.05.832-1.687 1.663-1.904 2.494.83.57 1.86 1.02 3.087 1.346 1.224.33 2.53.614 3.906.854 1.38.24 2.77.47 4.17.69 1.398.218 2.702.524 3.906.918 1.204.395 2.255.898 3.152 1.51.897.614 1.52 1.446 1.87 2.497v.065l6.175-1.247.262 1.97c-1.006.22-2.033.428-3.085.624-1.053.196-2.08.404-3.087.624-.088 1.533-.757 2.978-2.005 4.333-1.245 1.357-2.715 2.573-4.398 3.645-1.687 1.073-3.404 2.002-5.155 2.79-1.753.79-3.15 1.38-4.202 1.773-.57.22-1.248.46-2.036.723-.786.262-1.608.48-2.463.657-.853.175-1.705.262-2.56.262s-1.608-.13-2.265-.394c-1.708-.79-2.507-1.686-2.398-2.692.11-1.006.787-2.046 2.035-3.12 1.247-1.07 2.9-2.144 4.957-3.216 2.06-1.073 4.2-2.036 6.436-2.89 2.232-.853 4.388-1.585 6.47-2.2 2.08-.61 3.774-1.005 5.088-1.18-.7-.965-1.632-1.698-2.79-2.202-1.16-.5-2.42-.896-3.776-1.182-1.355-.284-2.735-.502-4.136-.657-1.402-.153-2.716-.34-3.94-.56-1.227-.216-2.287-.513-3.185-.885-.896-.37-1.5-.952-1.807-1.74-.656-1.313-.538-2.538.36-3.676.896-1.14 2.155-2.18 3.777-3.12 1.62-.94 3.414-1.75 5.385-2.43 1.97-.68 3.676-1.215 5.122-1.61l.787 1.773zm-9.718 28.435c.613-.22 1.38-.525 2.3-.92.918-.395 1.893-.865 2.922-1.412 1.028-.547 2.07-1.138 3.117-1.773 1.05-.633 2.006-1.313 2.858-2.034.853-.722 1.565-1.454 2.135-2.2.567-.744.874-1.488.92-2.232-1.05.35-2.32.732-3.81 1.15-1.488.416-3.054.874-4.695 1.377-1.642.504-3.294 1.074-4.957 1.708-1.664.635-3.22 1.345-4.664 2.135-1.97 1.05-3.304 2.025-4.004 2.923-.703.898-.854 1.577-.46 2.037.394.458 1.302.657 2.724.59 1.42-.065 3.292-.515 5.614-1.347z"/></g></svg>